<?xml version="1.0" encoding="utf-8"?>
<!-- Generator: Adobe Illustrator 25.2.0, SVG Export Plug-In . SVG Version: 6.00 Build 0)  -->
<svg version="1.1" id="Layer_1" xmlns="http://www.w3.org/2000/svg" xmlns:xlink="http://www.w3.org/1999/xlink" x="0px" y="0px"
	 viewBox="0 0 960 180" style="enable-background:new 0 0 960 180;" xml:space="preserve">
<style type="text/css">
	.st0{fill:url(#SVGID_1_);}
	.st1{fill:url(#SVGID_2_);}
	.st2{fill:url(#SVGID_3_);}
	.st3{fill:url(#SVGID_4_);}
	.st4{fill:url(#SVGID_5_);}
	.st5{fill:url(#SVGID_6_);}
	.st6{fill:url(#SVGID_7_);}
	.st7{fill:url(#SVGID_8_);}
	.st8{fill:url(#SVGID_9_);}
	.st9{fill:url(#SVGID_10_);}
	.st10{fill:url(#SVGID_11_);}
	.st11{fill:url(#SVGID_12_);}
	.st12{fill:url(#SVGID_13_);}
	.st13{fill:url(#SVGID_14_);}
	.st14{fill:url(#SVGID_15_);}
	.st15{fill:url(#SVGID_16_);}
	.st16{fill:url(#SVGID_17_);}
	.st17{fill:url(#SVGID_18_);}
</style>
<g>
	<linearGradient id="SVGID_1_" gradientUnits="userSpaceOnUse" x1="60" y1="9.7778" x2="60" y2="171.8508">
		<stop  offset="0" style="stop-color:#3DBAD8"/>
		<stop  offset="0.1482" style="stop-color:#3FB8CF"/>
		<stop  offset="0.3945" style="stop-color:#45B3B5"/>
		<stop  offset="0.7065" style="stop-color:#4DAB8C"/>
		<stop  offset="0.9944" style="stop-color:#57A360"/>
	</linearGradient>
	<circle class="st0" cx="60" cy="24" r="4"/>
	<linearGradient id="SVGID_2_" gradientUnits="userSpaceOnUse" x1="49.5" y1="9.7778" x2="49.5" y2="171.8508">
		<stop  offset="0" style="stop-color:#3DBAD8"/>
		<stop  offset="0.1482" style="stop-color:#3FB8CF"/>
		<stop  offset="0.3945" style="stop-color:#45B3B5"/>
		<stop  offset="0.7065" style="stop-color:#4DAB8C"/>
		<stop  offset="0.9944" style="stop-color:#57A360"/>
	</linearGradient>
	<circle class="st1" cx="49.5" cy="40.5" r="5.5"/>
	<linearGradient id="SVGID_3_" gradientUnits="userSpaceOnUse" x1="38.5" y1="9.7778" x2="38.5" y2="171.8508">
		<stop  offset="0" style="stop-color:#3DBAD8"/>
		<stop  offset="0.1482" style="stop-color:#3FB8CF"/>
		<stop  offset="0.3945" style="stop-color:#45B3B5"/>
		<stop  offset="0.7065" style="stop-color:#4DAB8C"/>
		<stop  offset="0.9944" style="stop-color:#57A360"/>
	</linearGradient>
	<circle class="st2" cx="38.5" cy="56.5" r="6.5"/>
	<linearGradient id="SVGID_4_" gradientUnits="userSpaceOnUse" x1="27" y1="9.7778" x2="27" y2="171.8508">
		<stop  offset="0" style="stop-color:#3DBAD8"/>
		<stop  offset="0.1482" style="stop-color:#3FB8CF"/>
		<stop  offset="0.3945" style="stop-color:#45B3B5"/>
		<stop  offset="0.7065" style="stop-color:#4DAB8C"/>
		<stop  offset="0.9944" style="stop-color:#57A360"/>
	</linearGradient>
	<circle class="st3" cx="27" cy="75" r="7"/>
	<linearGradient id="SVGID_5_" gradientUnits="userSpaceOnUse" x1="25.5" y1="9.7778" x2="25.5" y2="171.8508">
		<stop  offset="0" style="stop-color:#3DBAD8"/>
		<stop  offset="0.1482" style="stop-color:#3FB8CF"/>
		<stop  offset="0.3945" style="stop-color:#45B3B5"/>
		<stop  offset="0.7065" style="stop-color:#4DAB8C"/>
		<stop  offset="0.9944" style="stop-color:#57A360"/>
	</linearGradient>
	<circle class="st4" cx="25.5" cy="93.5" r="5.5"/>
	<linearGradient id="SVGID_6_" gradientUnits="userSpaceOnUse" x1="50" y1="9.7778" x2="50" y2="171.8508">
		<stop  offset="0" style="stop-color:#3DBAD8"/>
		<stop  offset="0.1482" style="stop-color:#3FB8CF"/>
		<stop  offset="0.3945" style="stop-color:#45B3B5"/>
		<stop  offset="0.7065" style="stop-color:#4DAB8C"/>
		<stop  offset="0.9944" style="stop-color:#57A360"/>
	</linearGradient>
	<path class="st5" d="M60.5,58h-21c-0.83,0-1.5-0.67-1.5-1.5l0,0c0-0.83,0.67-1.5,1.5-1.5h21c0.83,0,1.5,0.67,1.5,1.5l0,0
		C62,57.33,61.33,58,60.5,58z"/>
	<linearGradient id="SVGID_7_" gradientUnits="userSpaceOnUse" x1="49.5" y1="9.7778" x2="49.5" y2="171.8508">
		<stop  offset="0" style="stop-color:#3DBAD8"/>
		<stop  offset="0.1482" style="stop-color:#3FB8CF"/>
		<stop  offset="0.3945" style="stop-color:#45B3B5"/>
		<stop  offset="0.7065" style="stop-color:#4DAB8C"/>
		<stop  offset="0.9944" style="stop-color:#57A360"/>
	</linearGradient>
	<path class="st6" d="M70.5,77h-42c-0.83,0-1.5-0.67-1.5-1.5l0,0c0-0.83,0.67-1.5,1.5-1.5h42c0.83,0,1.5,0.67,1.5,1.5l0,0
		C72,76.33,71.33,77,70.5,77z"/>
	<linearGradient id="SVGID_8_" gradientUnits="userSpaceOnUse" x1="48" y1="9.7778" x2="48" y2="171.8508">
		<stop  offset="0" style="stop-color:#3DBAD8"/>
		<stop  offset="0.1482" style="stop-color:#3FB8CF"/>
		<stop  offset="0.3945" style="stop-color:#45B3B5"/>
		<stop  offset="0.7065" style="stop-color:#4DAB8C"/>
		<stop  offset="0.9944" style="stop-color:#57A360"/>
	</linearGradient>
	<path class="st7" d="M70.5,95h-45c-0.83,0-1.5-0.67-1.5-1.5l0,0c0-0.83,0.67-1.5,1.5-1.5h45c0.83,0,1.5,0.67,1.5,1.5l0,0
		C72,94.33,71.33,95,70.5,95z"/>
	<linearGradient id="SVGID_9_" gradientUnits="userSpaceOnUse" x1="71.5" y1="9.7778" x2="71.5" y2="171.8508">
		<stop  offset="0" style="stop-color:#3DBAD8"/>
		<stop  offset="0.1482" style="stop-color:#3FB8CF"/>
		<stop  offset="0.3945" style="stop-color:#45B3B5"/>
		<stop  offset="0.7065" style="stop-color:#4DAB8C"/>
		<stop  offset="0.9944" style="stop-color:#57A360"/>
	</linearGradient>
	<circle class="st8" cx="71.5" cy="75.5" r="5.5"/>
	<g>
		<linearGradient id="SVGID_10_" gradientUnits="userSpaceOnUse" x1="36" y1="9.7778" x2="36" y2="171.8508">
			<stop  offset="0" style="stop-color:#3DBAD8"/>
			<stop  offset="0.1482" style="stop-color:#3FB8CF"/>
			<stop  offset="0.3945" style="stop-color:#45B3B5"/>
			<stop  offset="0.7065" style="stop-color:#4DAB8C"/>
			<stop  offset="0.9944" style="stop-color:#57A360"/>
		</linearGradient>
		<circle class="st9" cx="36" cy="163" r="4"/>
		<linearGradient id="SVGID_11_" gradientUnits="userSpaceOnUse" x1="46.5" y1="9.7778" x2="46.5" y2="171.8508">
			<stop  offset="0" style="stop-color:#3DBAD8"/>
			<stop  offset="0.1482" style="stop-color:#3FB8CF"/>
			<stop  offset="0.3945" style="stop-color:#45B3B5"/>
			<stop  offset="0.7065" style="stop-color:#4DAB8C"/>
			<stop  offset="0.9944" style="stop-color:#57A360"/>
		</linearGradient>
		<circle class="st10" cx="46.5" cy="146.5" r="5.5"/>
		<linearGradient id="SVGID_12_" gradientUnits="userSpaceOnUse" x1="57.5" y1="9.7778" x2="57.5" y2="171.8508">
			<stop  offset="0" style="stop-color:#3DBAD8"/>
			<stop  offset="0.1482" style="stop-color:#3FB8CF"/>
			<stop  offset="0.3945" style="stop-color:#45B3B5"/>
			<stop  offset="0.7065" style="stop-color:#4DAB8C"/>
			<stop  offset="0.9944" style="stop-color:#57A360"/>
		</linearGradient>
		<circle class="st11" cx="57.5" cy="130.5" r="6.5"/>
		<linearGradient id="SVGID_13_" gradientUnits="userSpaceOnUse" x1="69" y1="9.7778" x2="69" y2="171.8508">
			<stop  offset="0" style="stop-color:#3DBAD8"/>
			<stop  offset="0.1482" style="stop-color:#3FB8CF"/>
			<stop  offset="0.3945" style="stop-color:#45B3B5"/>
			<stop  offset="0.7065" style="stop-color:#4DAB8C"/>
			<stop  offset="0.9944" style="stop-color:#57A360"/>
		</linearGradient>
		<circle class="st12" cx="69" cy="112" r="7"/>
		<linearGradient id="SVGID_14_" gradientUnits="userSpaceOnUse" x1="70.5" y1="9.7778" x2="70.5" y2="171.8508">
			<stop  offset="0" style="stop-color:#3DBAD8"/>
			<stop  offset="0.1482" style="stop-color:#3FB8CF"/>
			<stop  offset="0.3945" style="stop-color:#45B3B5"/>
			<stop  offset="0.7065" style="stop-color:#4DAB8C"/>
			<stop  offset="0.9944" style="stop-color:#57A360"/>
		</linearGradient>
		<circle class="st13" cx="70.5" cy="93.5" r="5.5"/>
		<linearGradient id="SVGID_15_" gradientUnits="userSpaceOnUse" x1="46" y1="9.7778" x2="46" y2="171.8508">
			<stop  offset="0" style="stop-color:#3DBAD8"/>
			<stop  offset="0.1482" style="stop-color:#3FB8CF"/>
			<stop  offset="0.3945" style="stop-color:#45B3B5"/>
			<stop  offset="0.7065" style="stop-color:#4DAB8C"/>
			<stop  offset="0.9944" style="stop-color:#57A360"/>
		</linearGradient>
		<path class="st14" d="M35.5,129h21c0.83,0,1.5,0.67,1.5,1.5l0,0c0,0.83-0.67,1.5-1.5,1.5h-21c-0.83,0-1.5-0.67-1.5-1.5l0,0
			C34,129.67,34.67,129,35.5,129z"/>
		<linearGradient id="SVGID_16_" gradientUnits="userSpaceOnUse" x1="46.5" y1="9.7778" x2="46.5" y2="171.8508">
			<stop  offset="0" style="stop-color:#3DBAD8"/>
			<stop  offset="0.1482" style="stop-color:#3FB8CF"/>
			<stop  offset="0.3945" style="stop-color:#45B3B5"/>
			<stop  offset="0.7065" style="stop-color:#4DAB8C"/>
			<stop  offset="0.9944" style="stop-color:#57A360"/>
		</linearGradient>
		<path class="st15" d="M25.5,110h42c0.83,0,1.5,0.67,1.5,1.5l0,0c0,0.83-0.67,1.5-1.5,1.5h-42c-0.83,0-1.5-0.67-1.5-1.5l0,0
			C24,110.67,24.67,110,25.5,110z"/>
		<linearGradient id="SVGID_17_" gradientUnits="userSpaceOnUse" x1="48" y1="9.7778" x2="48" y2="171.8508">
			<stop  offset="0" style="stop-color:#3DBAD8"/>
			<stop  offset="0.1482" style="stop-color:#3FB8CF"/>
			<stop  offset="0.3945" style="stop-color:#45B3B5"/>
			<stop  offset="0.7065" style="stop-color:#4DAB8C"/>
			<stop  offset="0.9944" style="stop-color:#57A360"/>
		</linearGradient>
		<path class="st16" d="M25.5,92h45c0.83,0,1.5,0.67,1.5,1.5l0,0c0,0.83-0.67,1.5-1.5,1.5h-45c-0.83,0-1.5-0.67-1.5-1.5l0,0
			C24,92.67,24.67,92,25.5,92z"/>
		<linearGradient id="SVGID_18_" gradientUnits="userSpaceOnUse" x1="24.5" y1="9.7778" x2="24.5" y2="171.8508">
			<stop  offset="0" style="stop-color:#3DBAD8"/>
			<stop  offset="0.1482" style="stop-color:#3FB8CF"/>
			<stop  offset="0.3945" style="stop-color:#45B3B5"/>
			<stop  offset="0.7065" style="stop-color:#4DAB8C"/>
			<stop  offset="0.9944" style="stop-color:#57A360"/>
		</linearGradient>
		<circle class="st17" cx="24.5" cy="111.5" r="5.5"/>
	</g>
</g>
<g>
	<g>
		<path d="M129.29,91.03c0-16.94,10.18-27.26,24.1-27.26c7.28,0,12.07,3.3,15.14,6.48l-3.66,4.35c-2.66-2.75-6.03-4.95-11.3-4.95
			c-10.58,0-17.38,8.13-17.38,21.21c0,13.2,6.24,21.47,17.44,21.47c3.77,0,7.39-1.13,9.46-3.08V95.56h-11.12v-5.54h17.21v22.07
			c-3.38,3.52-9.13,6.1-16.18,6.1C139.15,118.19,129.29,108.08,129.29,91.03z"/>
		<path d="M197.7,64.73h30.26v5.66h-23.58v16.45h19.89v5.66h-19.89v19.09h24.38v5.66H197.7V64.73z"/>
		<path d="M255.85,64.73h6.9l19,33.01l5.67,10.87h0.32c-0.34-5.3-0.85-11.22-0.85-16.71V64.73h6.35v52.51h-6.9l-19-33.04
			l-5.67-10.84h-0.32c0.34,5.31,0.85,10.91,0.85,16.4v27.48h-6.35V64.73z"/>
		<path d="M323.61,64.73h30.26v5.66h-23.58v16.45h19.89v5.66h-19.89v19.09h24.38v5.66h-31.06V64.73z"/>
		<path d="M392.7,70.38h-15.88v-5.66h38.45v5.66h-15.88v46.85h-6.68V70.38z"/>
		<path d="M440.65,64.73h30.26v5.66h-23.58v16.45h19.89v5.66h-19.89v19.09h24.38v5.66h-31.06V64.73z"/>
		<path d="M498.81,64.73h16.44c10.7,0,18.37,3.84,18.37,14.78c0,10.49-7.68,15.54-18.37,15.54h-9.76v22.19h-6.68V64.73z
			 M514.3,89.62c8.17,0,12.67-3.31,12.67-10.12c0-6.91-4.5-9.36-12.67-9.36h-8.8v19.47H514.3z M513.94,93.21l5.23-3.46l16.02,27.48
			h-7.57L513.94,93.21z"/>
		<path d="M560.33,64.73h15c11.77,0,19.71,3.96,19.71,15.46c0,11.05-7.9,16.22-19.38,16.22h-8.63v20.83h-6.68V64.73z M574.8,90.99
			c9.18,0,13.56-3.33,13.56-10.8c0-7.57-4.66-10.04-13.88-10.04h-7.47v20.84H574.8z"/>
		<path d="M621.61,64.73h16.44c10.7,0,18.37,3.84,18.37,14.78c0,10.49-7.68,15.54-18.37,15.54h-9.76v22.19h-6.68V64.73z
			 M637.09,89.62c8.17,0,12.67-3.31,12.67-10.12c0-6.91-4.5-9.36-12.67-9.36h-8.8v19.47H637.09z M636.74,93.21l5.24-3.46
			l16.02,27.48h-7.57L636.74,93.21z"/>
		<path d="M683.13,64.73h30.26v5.66h-23.58v16.45h19.89v5.66h-19.89v19.09h24.38v5.66h-31.06V64.73z"/>
		<path d="M752.22,70.38h-15.88v-5.66h38.45v5.66H758.9v46.85h-6.68V70.38z"/>
		<path d="M800.17,64.73h30.26v5.66h-23.58v16.45h19.89v5.66h-19.89v19.09h24.38v5.66h-31.06V64.73z"/>
		<path d="M858.33,64.73h16.44c10.7,0,18.37,3.84,18.37,14.78c0,10.49-7.68,15.54-18.37,15.54h-9.76v22.19h-6.68V64.73z
			 M873.81,89.62c8.17,0,12.67-3.31,12.67-10.12c0-6.91-4.5-9.36-12.67-9.36h-8.8v19.47H873.81z M873.45,93.21l5.24-3.46
			l16.02,27.48h-7.57L873.45,93.21z"/>
	</g>
</g>
</svg>
